<svg width="14" height="14" viewBox="0 0 14 14" fill="none" xmlns="http://www.w3.org/2000/svg">
<path d="M5.91362 0C2.65301 0 0 2.653 0 5.9136C0 9.1742 2.65301 11.8272 5.91362 11.8272C9.17424 11.8272 11.8272 9.1742 11.8272 5.9136C11.8272 2.653 9.17471 0 5.91362 0ZM5.91362 10.7931C3.22328 10.7931 1.03414 8.6044 1.03414 5.9136C1.03414 3.2228 3.22328 1.0346 5.91362 1.0346C8.60397 1.0346 10.7931 3.22327 10.7931 5.91407C10.7931 8.60487 8.60444 10.7931 5.91362 10.7931ZM13.8484 13.1171L10.0898 9.35853C9.88778 9.15647 9.56064 9.15647 9.35857 9.35853C9.15651 9.5606 9.15651 9.8882 9.35857 10.0898L13.1171 13.8483C13.2184 13.9496 13.3505 14 13.483 14C13.6155 14 13.7476 13.9496 13.8489 13.8483C14.0505 13.6467 14.0505 13.3191 13.8484 13.1171Z" fill="#0F80C4"/>
</svg>
