<svg width="157" height="37" viewBox="0 0 157 37" fill="none" xmlns="http://www.w3.org/2000/svg">
<g filter="url(#filter0_d_8_2175)">
<rect x="36" y="2.00006" width="25" height="24.2087" rx="4" fill="white"/>
</g>
<path fill-rule="evenodd" clip-rule="evenodd" d="M47.1669 11.1051C47.1164 11.1183 47.0592 11.1407 47.0398 11.1549C46.957 11.2156 46.8722 11.2999 46.8469 11.3465C46.8137 11.408 46.8303 11.425 46.9555 11.4575C47.1501 11.5078 47.2753 11.6074 47.3461 11.7679C47.4157 11.9258 47.4509 12.3272 47.437 12.8016C47.4204 13.366 47.3708 13.5987 47.2453 13.701C47.0761 13.8388 46.8507 13.6702 46.4733 13.1234C46.1929 12.7172 45.9457 12.27 45.6831 11.694C45.5632 11.4308 45.4709 11.3229 45.3358 11.2877C45.2763 11.2722 45.0164 11.2674 44.4563 11.2716C43.5773 11.2781 43.5662 11.2796 43.515 11.3993C43.4772 11.4878 43.5021 11.5687 43.6845 11.9496C44.2212 13.0706 44.7203 13.9349 45.2424 14.6475C46.1568 15.8959 47.0315 16.4463 48.2656 16.55C48.695 16.5861 49.0437 16.5666 49.1784 16.4989C49.2873 16.4442 49.3206 16.3624 49.3518 16.0728C49.3848 15.7659 49.4079 15.6666 49.4821 15.5136C49.5821 15.3071 49.7336 15.2394 49.9198 15.318C49.9935 15.3491 50.0806 15.4245 50.299 15.6463C50.9377 16.2949 51.0204 16.3688 51.1996 16.4519C51.3052 16.5008 51.4152 16.5357 51.5052 16.5488C51.6834 16.5747 53.1771 16.5764 53.2693 16.5508C53.4836 16.4912 53.5548 16.2454 53.4292 15.9984C53.3028 15.7497 53.0716 15.4843 52.5168 14.9505C52.2245 14.6693 51.9605 14.4022 51.9302 14.3569C51.8558 14.2461 51.8537 14.1193 51.9237 13.9754C51.9517 13.9181 52.1971 13.5816 52.4693 13.2276C53.0264 12.5027 53.2088 12.2436 53.3354 11.9969C53.5193 11.6388 53.546 11.4598 53.4305 11.3599C53.3328 11.2754 53.2393 11.268 52.2777 11.2684C51.4388 11.2688 51.3791 11.271 51.3015 11.3052C51.2001 11.3497 51.1737 11.3905 51.0198 11.741C50.7047 12.4581 50.3573 13.0354 49.9882 13.455C49.8156 13.6513 49.7118 13.7293 49.623 13.7293C49.517 13.7293 49.416 13.6267 49.3542 13.4559C49.3409 13.419 49.3293 13.0297 49.3224 12.385C49.312 11.4039 49.3103 11.3694 49.2701 11.2852C49.2261 11.1929 49.1583 11.1362 49.0497 11.1005C48.9521 11.0684 47.292 11.0725 47.1669 11.1051Z" fill="#4E7DB2"/>
<g filter="url(#filter1_d_8_2175)">
<rect x="66" y="2.00006" width="25" height="24.2087" rx="4" fill="white"/>
</g>
<path d="M76.1613 14.4203H77.2575V18.7902C77.2575 18.8765 77.3296 18.9464 77.4187 18.9464H79.2773C79.3664 18.9464 79.4386 18.8765 79.4386 18.7902V14.4409H80.6987C80.7807 14.4409 80.8496 14.3814 80.859 14.3025L81.0504 12.6938C81.0556 12.6495 81.0411 12.6052 81.0105 12.572C80.9799 12.5387 80.9361 12.5197 80.8902 12.5197H79.4387V11.5113C79.4387 11.2073 79.6077 11.0531 79.9411 11.0531C79.9886 11.0531 80.8902 11.0531 80.8902 11.0531C80.9793 11.0531 81.0515 10.9832 81.0515 10.8969V9.42022C81.0515 9.33394 80.9793 9.26403 80.8902 9.26403H79.5823C79.573 9.2636 79.5525 9.26288 79.5224 9.26288C79.2954 9.26288 78.5066 9.30602 77.8835 9.8611C77.1931 10.4762 77.2891 11.2127 77.312 11.3404V12.5197H76.1613C76.0722 12.5197 76 12.5896 76 12.6759V14.2641C76 14.3504 76.0722 14.4203 76.1613 14.4203Z" fill="#1773EA"/>
<g filter="url(#filter2_d_8_2175)">
<rect x="126" y="2" width="25" height="24.2087" rx="4" fill="white"/>
</g>
<g clip-path="url(#clip0_8_2175)">
<path d="M140.595 9.26279H136.405C134.803 9.26279 133.5 10.5246 133.5 12.0757V16.1334C133.5 17.6844 134.803 18.9463 136.405 18.9463H140.595C142.197 18.9463 143.5 17.6844 143.5 16.1334V12.0757C143.5 10.5246 142.197 9.26279 140.595 9.26279ZM142.719 16.1334C142.719 17.2673 141.766 18.1898 140.595 18.1898H136.405C135.234 18.1898 134.281 17.2673 134.281 16.1334V12.0757C134.281 10.9418 135.234 10.0193 136.405 10.0193H140.595C141.766 10.0193 142.719 10.9418 142.719 12.0757V16.1334Z" fill="#A51DA8"/>
<path d="M138.5 11.4945C137.014 11.4945 135.805 12.6654 135.805 14.1045C135.805 15.5437 137.014 16.7145 138.5 16.7145C139.986 16.7145 141.195 15.5437 141.195 14.1045C141.195 12.6654 139.986 11.4945 138.5 11.4945ZM138.5 15.958C137.445 15.958 136.586 15.1265 136.586 14.1045C136.586 13.0825 137.445 12.2511 138.5 12.2511C139.556 12.2511 140.414 13.0825 140.414 14.1045C140.414 15.1265 139.556 15.958 138.5 15.958Z" fill="#A51DA8"/>
<path d="M141.234 11.835C141.45 11.835 141.625 11.6656 141.625 11.4567C141.625 11.2478 141.45 11.0784 141.234 11.0784C141.019 11.0784 140.844 11.2478 140.844 11.4567C140.844 11.6656 141.019 11.835 141.234 11.835Z" fill="#A51DA8"/>
</g>
<g filter="url(#filter3_d_8_2175)">
<rect x="96" y="2.00006" width="25" height="24.2087" rx="4" fill="white"/>
</g>
<g clip-path="url(#clip1_8_2175)">
<path d="M108.501 9.26288H108.499C105.742 9.26288 103.5 11.4344 103.5 14.1046C103.5 15.1638 103.852 16.1454 104.452 16.9425L103.829 18.7412L105.751 18.1463C106.541 18.6535 107.484 18.9464 108.501 18.9464C111.258 18.9464 113.5 16.7742 113.5 14.1046C113.5 11.435 111.258 9.26288 108.501 9.26288ZM111.411 16.1C111.29 16.4299 110.811 16.7034 110.429 16.7833C110.168 16.8372 109.827 16.8802 108.678 16.419C107.209 15.8295 106.262 14.3836 106.189 14.2898C106.118 14.196 105.595 13.5242 105.595 12.8294C105.595 12.1346 105.959 11.7963 106.106 11.6511C106.227 11.5318 106.426 11.4774 106.617 11.4774C106.679 11.4774 106.735 11.4804 106.785 11.4828C106.932 11.4889 107.006 11.4973 107.102 11.7219C107.223 12.0033 107.517 12.6981 107.552 12.7695C107.587 12.8409 107.623 12.9378 107.573 13.0316C107.526 13.1284 107.485 13.1714 107.411 13.2537C107.337 13.336 107.267 13.3989 107.194 13.4873C107.126 13.5642 107.05 13.6465 107.135 13.7887C107.22 13.9279 107.514 14.3921 107.946 14.7649C108.504 15.2461 108.957 15.3998 109.119 15.4652C109.239 15.5136 109.383 15.5021 109.471 15.4113C109.583 15.2945 109.721 15.1008 109.862 14.9102C109.962 14.7734 110.088 14.7564 110.221 14.8049C110.356 14.8503 111.07 15.1922 111.217 15.263C111.364 15.3344 111.461 15.3683 111.496 15.4282C111.531 15.4882 111.531 15.7696 111.411 16.1Z" fill="#40AC69"/>
</g>
<g filter="url(#filter4_d_8_2175)">
<rect x="6" y="2" width="25" height="24.2087" rx="4" fill="white"/>
</g>
<g clip-path="url(#clip2_8_2175)">
<path d="M17.4238 15.3879L17.2584 17.6409C17.4951 17.6409 17.5976 17.5425 17.7205 17.4243L18.8301 16.3974L21.1292 18.0279C21.5509 18.2554 21.848 18.1356 21.9617 17.6522L23.4709 10.8044L23.4713 10.804C23.6051 10.2004 23.2459 9.96434 22.8351 10.1124L13.9642 13.4012C13.3588 13.6287 13.368 13.9556 13.8613 14.1036L16.1292 14.7867L21.3972 11.5948C21.6451 11.4358 21.8705 11.5238 21.6851 11.6828L17.4238 15.3879Z" fill="#36A1D4"/>
</g>
<defs>
<filter id="filter0_d_8_2175" x="30" y="6.10352e-05" width="37" height="36.2087" filterUnits="userSpaceOnUse" color-interpolation-filters="sRGB">
<feFlood flood-opacity="0" result="BackgroundImageFix"/>
<feColorMatrix in="SourceAlpha" type="matrix" values="0 0 0 0 0 0 0 0 0 0 0 0 0 0 0 0 0 0 127 0" result="hardAlpha"/>
<feOffset dy="4"/>
<feGaussianBlur stdDeviation="3"/>
<feComposite in2="hardAlpha" operator="out"/>
<feColorMatrix type="matrix" values="0 0 0 0 0.00784314 0 0 0 0 0.556863 0 0 0 0 0.807843 0 0 0 0.32 0"/>
<feBlend mode="normal" in2="BackgroundImageFix" result="effect1_dropShadow_8_2175"/>
<feBlend mode="normal" in="SourceGraphic" in2="effect1_dropShadow_8_2175" result="shape"/>
</filter>
<filter id="filter1_d_8_2175" x="60" y="6.10352e-05" width="37" height="36.2087" filterUnits="userSpaceOnUse" color-interpolation-filters="sRGB">
<feFlood flood-opacity="0" result="BackgroundImageFix"/>
<feColorMatrix in="SourceAlpha" type="matrix" values="0 0 0 0 0 0 0 0 0 0 0 0 0 0 0 0 0 0 127 0" result="hardAlpha"/>
<feOffset dy="4"/>
<feGaussianBlur stdDeviation="3"/>
<feComposite in2="hardAlpha" operator="out"/>
<feColorMatrix type="matrix" values="0 0 0 0 0.00784314 0 0 0 0 0.556863 0 0 0 0 0.807843 0 0 0 0.32 0"/>
<feBlend mode="normal" in2="BackgroundImageFix" result="effect1_dropShadow_8_2175"/>
<feBlend mode="normal" in="SourceGraphic" in2="effect1_dropShadow_8_2175" result="shape"/>
</filter>
<filter id="filter2_d_8_2175" x="120" y="0" width="37" height="36.2087" filterUnits="userSpaceOnUse" color-interpolation-filters="sRGB">
<feFlood flood-opacity="0" result="BackgroundImageFix"/>
<feColorMatrix in="SourceAlpha" type="matrix" values="0 0 0 0 0 0 0 0 0 0 0 0 0 0 0 0 0 0 127 0" result="hardAlpha"/>
<feOffset dy="4"/>
<feGaussianBlur stdDeviation="3"/>
<feComposite in2="hardAlpha" operator="out"/>
<feColorMatrix type="matrix" values="0 0 0 0 0.00784314 0 0 0 0 0.556863 0 0 0 0 0.807843 0 0 0 0.32 0"/>
<feBlend mode="normal" in2="BackgroundImageFix" result="effect1_dropShadow_8_2175"/>
<feBlend mode="normal" in="SourceGraphic" in2="effect1_dropShadow_8_2175" result="shape"/>
</filter>
<filter id="filter3_d_8_2175" x="90" y="6.10352e-05" width="37" height="36.2087" filterUnits="userSpaceOnUse" color-interpolation-filters="sRGB">
<feFlood flood-opacity="0" result="BackgroundImageFix"/>
<feColorMatrix in="SourceAlpha" type="matrix" values="0 0 0 0 0 0 0 0 0 0 0 0 0 0 0 0 0 0 127 0" result="hardAlpha"/>
<feOffset dy="4"/>
<feGaussianBlur stdDeviation="3"/>
<feComposite in2="hardAlpha" operator="out"/>
<feColorMatrix type="matrix" values="0 0 0 0 0.00784314 0 0 0 0 0.556863 0 0 0 0 0.807843 0 0 0 0.32 0"/>
<feBlend mode="normal" in2="BackgroundImageFix" result="effect1_dropShadow_8_2175"/>
<feBlend mode="normal" in="SourceGraphic" in2="effect1_dropShadow_8_2175" result="shape"/>
</filter>
<filter id="filter4_d_8_2175" x="0" y="0" width="37" height="36.2087" filterUnits="userSpaceOnUse" color-interpolation-filters="sRGB">
<feFlood flood-opacity="0" result="BackgroundImageFix"/>
<feColorMatrix in="SourceAlpha" type="matrix" values="0 0 0 0 0 0 0 0 0 0 0 0 0 0 0 0 0 0 127 0" result="hardAlpha"/>
<feOffset dy="4"/>
<feGaussianBlur stdDeviation="3"/>
<feComposite in2="hardAlpha" operator="out"/>
<feColorMatrix type="matrix" values="0 0 0 0 0.00784314 0 0 0 0 0.556863 0 0 0 0 0.807843 0 0 0 0.32 0"/>
<feBlend mode="normal" in2="BackgroundImageFix" result="effect1_dropShadow_8_2175"/>
<feBlend mode="normal" in="SourceGraphic" in2="effect1_dropShadow_8_2175" result="shape"/>
</filter>
<clipPath id="clip0_8_2175">
<rect width="10" height="9.6835" fill="white" transform="translate(133.5 9.26279)"/>
</clipPath>
<clipPath id="clip1_8_2175">
<rect width="10" height="9.6835" fill="white" transform="translate(103.5 9.26288)"/>
</clipPath>
<clipPath id="clip2_8_2175">
<rect width="10" height="9.6835" fill="white" transform="translate(13.5001 9.26282)"/>
</clipPath>
</defs>
</svg>
