<svg width="32" height="32" viewBox="0 0 32 32" fill="none" xmlns="http://www.w3.org/2000/svg">
<rect width="32" height="32" rx="4" fill="white"/>
<path fill-rule="evenodd" clip-rule="evenodd" d="M20.9529 10.0361C20.8819 10.0579 20.7288 10.12 20.6126 10.174C20.4965 10.228 18.1946 11.2767 15.4974 12.5045C12.8002 13.7323 10.5463 14.7617 10.4888 14.7921C10.0096 15.0449 9.8557 15.5772 10.1486 15.9687C10.2035 16.0421 10.2997 16.1355 10.3622 16.1761C10.4248 16.2168 10.9881 16.4746 11.614 16.7491C12.2399 17.0236 12.7646 17.2627 12.7799 17.2804C12.7952 17.2981 13.0674 18.0296 13.3847 18.9058C13.7019 19.7821 13.985 20.562 14.0138 20.639C14.0789 20.8135 14.2897 21.0749 14.4306 21.156C14.6807 21.3 14.9519 21.2918 15.2221 21.1319C15.3791 21.039 15.4412 20.9754 16.0557 20.2783C16.2725 20.0325 16.4625 19.8373 16.4781 19.8446C16.4936 19.8519 17.0396 20.2992 17.6913 20.8387C18.343 21.3782 18.9312 21.8498 18.9984 21.8869C19.4848 22.1551 19.9862 21.9344 20.2138 21.352C20.2849 21.1703 20.3883 20.5992 21.1445 16.2129C22.0736 10.8245 22.0532 10.9656 21.9538 10.622C21.8182 10.1531 21.3887 9.90166 20.9529 10.0361ZM21.2767 10.875C21.2922 10.8936 21.3048 10.9484 21.3048 10.9968C21.3048 11.0452 21.1302 12.0991 20.9167 13.3387C20.7032 14.5783 20.3226 16.7902 20.0709 18.254C19.8192 19.7178 19.5977 20.9517 19.5787 20.996C19.5215 21.1289 19.4417 21.1759 19.3386 21.1373C19.2908 21.1194 18.7765 20.711 18.1958 20.2298C17.615 19.7486 16.7049 18.9969 16.1733 18.5593C15.6416 18.1218 15.2087 17.7559 15.2112 17.7462C15.2137 17.7365 16.0025 16.8626 16.9639 15.8042C18.9731 13.5923 19.0429 13.5125 19.0779 13.385C19.1511 13.1184 18.946 12.8173 18.714 12.8507C18.6528 12.8595 18.4613 12.9663 18.1841 13.1461C17.7287 13.4413 14.5254 15.5059 13.5943 16.1042C13.2961 16.2958 13.0368 16.4526 13.0181 16.4526C12.9994 16.4526 12.8579 16.3969 12.7038 16.3288C12.5497 16.2607 12.0857 16.0562 11.6727 15.8742C11.2597 15.6923 10.9144 15.5354 10.9054 15.5257C10.8964 15.5159 12.9079 14.5888 15.3754 13.4653C17.8429 12.3418 20.1322 11.2994 20.4627 11.1488C21.2001 10.8128 21.2195 10.8063 21.2767 10.875ZM16.3765 15.3062C16.3576 15.3271 15.8986 15.8324 15.3566 16.4291C14.8146 17.0259 14.3553 17.5373 14.3359 17.5657C14.308 17.6066 14.2972 17.7577 14.2836 18.2968C14.2741 18.6706 14.2636 19.0224 14.2601 19.0788C14.2547 19.1659 14.1976 19.0266 13.8796 18.1501C13.6737 17.583 13.5153 17.1143 13.5276 17.1085C13.5398 17.1028 14.1834 16.6874 14.9577 16.1854C15.732 15.6834 16.3758 15.2717 16.3882 15.2705C16.4006 15.2692 16.3954 15.2853 16.3765 15.3062ZM15.4261 18.9647C15.6523 19.1521 15.8419 19.3143 15.8475 19.3252C15.857 19.3437 15.0328 20.2909 14.9896 20.311C14.9785 20.3162 14.9694 19.9387 14.9694 19.4721C14.9694 18.9447 14.978 18.6239 14.9921 18.6239C15.0046 18.6239 15.1999 18.7772 15.4261 18.9647Z" fill="#25A8E3"/>
</svg>
