<svg width="32" height="32" viewBox="0 0 32 32" fill="none" xmlns="http://www.w3.org/2000/svg">
<rect width="32" height="32" rx="4" fill="white"/>
<path d="M20.2267 11.7426C19.0984 10.6195 17.5973 10.0006 15.9997 10C14.4057 10 12.9023 10.6184 11.7665 11.7411C10.6287 12.8659 10.0015 14.3606 10 15.9444V15.9463V15.9474C10.0002 16.906 10.2523 17.8731 10.7308 18.7558L10.0164 22L13.3011 21.2536C14.133 21.6724 15.0612 21.8932 15.9974 21.8936H15.9998C17.5936 21.8936 19.097 21.2752 20.233 20.1523C21.3718 19.0266 21.9993 17.5339 22 15.949C22.0004 14.3753 21.3708 12.8814 20.2267 11.7426ZM15.9997 20.957H15.9976C15.157 20.9567 14.3241 20.7458 13.589 20.3471L13.4337 20.2629L11.2495 20.7592L11.7239 18.6051L11.6325 18.4476C11.1778 17.6642 10.9375 16.7994 10.9375 15.9464C10.9392 13.1854 13.2099 10.9366 15.9995 10.9366C17.3472 10.9371 18.6135 11.4591 19.5651 12.4061C20.5311 13.3678 21.0629 14.6259 21.0624 15.9487C21.0613 18.7103 18.7902 20.957 15.9997 20.957Z" fill="#40AC69"/>
<path d="M14.1932 13H13.9103C13.8119 13 13.652 13.0332 13.5167 13.1659C13.3814 13.2987 13 13.6196 13 14.2722C13 14.9248 13.529 15.5554 13.6028 15.644C13.6766 15.7325 14.624 17.1145 16.1245 17.6462C17.3715 18.088 17.6253 18.0001 17.8959 17.978C18.1666 17.956 18.7694 17.6572 18.8924 17.3475C19.0154 17.0378 19.0154 16.7723 18.9785 16.7168C18.9416 16.6616 18.8431 16.6284 18.6955 16.5621C18.5478 16.4957 17.8243 16.1694 17.689 16.1251C17.5537 16.0809 17.4553 16.0588 17.3568 16.1916C17.2583 16.3242 16.9684 16.631 16.8823 16.7195C16.7962 16.8081 16.7101 16.8192 16.5624 16.7528C16.4147 16.6863 15.9441 16.5437 15.3802 16.0919C14.9412 15.7403 14.6367 15.2919 14.5505 15.1591C14.4645 15.0265 14.5414 14.9547 14.6154 14.8885C14.6817 14.8291 14.7713 14.7479 14.8451 14.6705C14.9189 14.593 14.9399 14.5377 14.9891 14.4492C15.0383 14.3607 15.0137 14.2832 14.9768 14.2169C14.9399 14.1505 14.6566 13.4946 14.5253 13.2323H14.5254C14.4149 13.0114 14.2984 13.0039 14.1932 13Z" fill="#40AC69"/>
</svg>
